<svg xmlns="http://www.w3.org/2000/svg" width="820" height="303" viewBox="0 0 820 303"><g transform="translate(-390 -2120.221)"><path d="M0,0H820V303H0Z" transform="translate(390 2120.221)" fill="#f8f5ff"/><rect width="305" height="266" transform="translate(390 2157.221)" fill="#ffe8c8"/><path d="M1,1V265H304V1H1M0,0H305V266H0Z" transform="translate(390 2157.221)" fill="#e1e1e1"/><rect width="820" height="98" transform="translate(390 2120.221)" fill="#ffddad"/><path d="M1,1V97H819V1H1M0,0H820V98H0Z" transform="translate(390 2120.221)" fill="#e1e1e1"/><text transform="translate(518 2176.221)" fill="#12263f" font-size="18" font-family="Roboto-Black, Roboto" font-weight="800"><tspan x="0" y="0">DOFA </tspan></text><text transform="translate(832 2164.221)" fill="#12263f" font-size="18" font-family="Roboto-Black, Roboto" font-weight="800"><tspan x="-55.288" y="0">FORTALEZAS</tspan><tspan x="-96.267" y="25">Puntos fuertes internos</tspan></text><text transform="translate(1082 2164.221)" fill="#12263f" font-size="18" font-family="Roboto-Black, Roboto" font-weight="800"><tspan x="-55.406" y="0">DEBILIDADES</tspan><tspan x="-96.289" y="25">Puntos débiles internos</tspan></text><path d="M819,.5H0v-1H819Z" transform="translate(391 2327.221)" fill="#e1e1e1"/><text transform="translate(413 2251.221)" fill="#12263f" font-size="16" font-family="Roboto-Bold, Roboto" font-weight="700"><tspan x="0" y="17">OPORTUNIDADES</tspan><tspan x="0" y="38">Lo que se debe aprovechar</tspan></text><text transform="translate(413 2340.221)" fill="#12263f" font-size="16" font-family="Roboto-Bold, Roboto" font-weight="700"><tspan x="0" y="17">AMENAZAS</tspan><tspan x="0" y="38">Riesgos externos que se deben </tspan><tspan x="0" y="59">afrontar</tspan></text><text transform="translate(1030 2251.221)" fill="#12263f" font-size="15" font-family="Roboto-Regular, Roboto"><tspan x="0" y="16">DO: Estrategia </tspan><tspan x="0" y="37">de adaptación</tspan></text><text transform="translate(1020 2349.221)" fill="#12263f" font-size="16" font-family="Roboto-Regular, Roboto"><tspan x="0" y="17">DA: Estrategia de </tspan><tspan x="0" y="38">supervivencia</tspan></text><text transform="translate(757 2280.221)" fill="#12263f" font-size="16" font-family="Roboto-Regular, Roboto"><tspan x="0" y="0">FO: Estrategia de éxito</tspan></text><text transform="translate(744 2368.221)" fill="#12263f" font-size="16" font-family="Roboto-Regular, Roboto"><tspan x="0" y="0">FA: Estrategia de reacción</tspan></text><path d="M.5,303h-1V0h1Z" transform="translate(695 2120.221)" fill="#e1e1e1"/><path d="M.5,303h-1V0h1Z" transform="translate(959 2120.221)" fill="#e1e1e1"/></g></svg>