<svg xmlns="http://www.w3.org/2000/svg" width="820" height="266" viewBox="0 0 820 266"><g transform="translate(-390 -1371.221)"><path d="M0,0H820V266H0Z" transform="translate(390 1371.221)" fill="#f8f5ff"/><path d="M1,1V265H819V1H1M0,0H820V266H0Z" transform="translate(390 1371.221)" fill="#e1e1e1"/><rect width="305" height="266" transform="translate(390 1371.221)" fill="#ffe9cb"/><path d="M1,1V265H304V1H1M0,0H305V266H0Z" transform="translate(390 1371.221)" fill="#e1e1e1"/><path d="M0,0H820V61H0Z" transform="translate(390 1371.221)" fill="#ffddad"/><path d="M1,1V60H819V1H1M0,0H820V61H0Z" transform="translate(390 1371.221)" fill="#e1e1e1"/><text transform="translate(495 1408.221)" fill="#12263f" font-size="18" font-family="Roboto-Black, Roboto" font-weight="800"><tspan x="0" y="0">DOFA </tspan></text><text transform="translate(800 1408.221)" fill="#12263f" font-size="18" font-family="Roboto-Black, Roboto" font-weight="800"><tspan x="0" y="0">Positivos</tspan></text><text transform="translate(1043 1409.221)" fill="#12263f" font-size="18" font-family="Roboto-Black, Roboto" font-weight="800"><tspan x="0" y="0">Negativos</tspan></text><path d="M819,.5H0v-1H819Z" transform="translate(391 1541.221)" fill="#e1e1e1"/><text transform="translate(413 1475.221)" fill="#12263f" font-size="16" font-family="Roboto-Bold, Roboto" font-weight="700"><tspan x="0" y="17">Internos (factores de </tspan><tspan x="0" y="38">organización)</tspan></text><text transform="translate(413 1563.221)" fill="#12263f" font-size="16" font-family="Roboto-Bold, Roboto" font-weight="700"><tspan x="0" y="17">Externos (factores ambiente)</tspan></text><text transform="translate(1030 1475.221)" fill="#12263f" font-size="15" font-family="Roboto-Regular, Roboto"><tspan x="0" y="16">DEBILIDADES</tspan></text><text transform="translate(1043 1563.221)" fill="#12263f" font-size="16" font-family="Roboto-Regular, Roboto"><tspan x="0" y="17">AMENAZAS</tspan></text><text transform="translate(786 1494.221)" fill="#12263f" font-size="16" font-family="Roboto-Regular, Roboto"><tspan x="0" y="0">FORTALEZAS</tspan></text><text transform="translate(773 1582.221)" fill="#12263f" font-size="16" font-family="Roboto-Regular, Roboto"><tspan x="0" y="0">OPORTUNIDADES</tspan></text><path d="M.5,266h-1V0h1Z" transform="translate(695 1371.221)" fill="#e1e1e1"/><path d="M.5,266h-1V0h1Z" transform="translate(959 1371.221)" fill="#e1e1e1"/></g></svg>