<svg xmlns="http://www.w3.org/2000/svg" xmlns:xlink="http://www.w3.org/1999/xlink" width="59" height="69" viewBox="0 0 59 69"><defs><clipPath id="a"><rect width="59" height="69" fill="#fff" stroke="#707070" stroke-width="1"/></clipPath></defs><g clip-path="url(#a)"><g transform="translate(-0.179 1.735)"><g transform="translate(1.302 1.298)"><path d="M45.741,140.342H67.714v29.339H45.741Z" transform="translate(-45.741 -123.444)" fill="#ffba5b"/><path d="M348.223,10.014h14.689V24.683H348.223Z" transform="translate(-308.951 -10.014)" fill="#ff6d4b"/><path d="M348.178,196.976h14.689v14.669H348.178Z" transform="translate(-308.912 -172.734)" fill="#c6bde0"/><path d="M348.134,383.939h14.689v14.669H348.134Z" transform="translate(-308.873 -335.456)" fill="#ff6d4b"/></g><path d="M296.251,0,281.562,0a1.3,1.3,0,0,0-1.3,1.3V7.334l-7.348,0a1.3,1.3,0,0,0-1.3,1.3l0,7.049a1.3,1.3,0,0,0,2.6,0V9.926h6.05v6.038a1.3,1.3,0,0,0,1.3,1.3l14.689,0a1.3,1.3,0,0,0,1.3-1.3l0-14.669a1.3,1.3,0,0,0-1.3-1.3Zm-1.3,14.669-12.092,0V8.632h0V2.593l12.092,0Z" transform="translate(-240.986 0)" fill="#12263f"/><path d="M90.974,137.669l-14.689,0a1.3,1.3,0,0,0-1.3,1.3V145h-6.05v-5.471a1.3,1.3,0,0,0-2.6,0V145h-6.05l0-13.373a1.3,1.3,0,0,0-1.3-1.3l-21.973-.005a1.3,1.3,0,0,0-1.3,1.3l-.007,29.339a1.3,1.3,0,0,0,1.3,1.3l21.973.005a1.3,1.3,0,0,0,1.3-1.3l0-13.373h6.05l-.005,22.945a1.3,1.3,0,0,0,1.3,1.3l7.348,0v6.038a1.3,1.3,0,0,0,1.3,1.3l14.689,0a1.3,1.3,0,0,0,1.3-1.3l0-14.669a1.3,1.3,0,0,0-1.3-1.3l-14.689,0a1.3,1.3,0,0,0-1.3,1.3v6.038H68.93l.005-21.648h6.05v6.038a1.3,1.3,0,0,0,1.3,1.3l14.689,0a1.3,1.3,0,0,0,1.3-1.3l0-14.669a1.3,1.3,0,0,0-1.3-1.3Zm-33.286,22-19.376,0,.006-26.745,19.376,0ZM89.669,164.5l0,12.076-12.092,0,0-12.076Zm0-12.165-12.092,0V146.3h0v-6.038l12.092,0Z" transform="translate(-35.715 -113.424)" fill="#12263f"/><path d="M271.707,153.444a1.3,1.3,0,1,0,.7-1.693A1.31,1.31,0,0,0,271.707,153.444Z" transform="translate(-240.984 -131.991)" fill="#12263f"/></g></g></svg>