<svg xmlns="http://www.w3.org/2000/svg" xmlns:xlink="http://www.w3.org/1999/xlink" width="32" height="32" viewBox="0 0 32 32"><defs><clipPath id="a"><rect width="32" height="32" fill="#12263f"/></clipPath></defs><g clip-path="url(#a)"><path d="M4.188,181.172a.678.678,0,0,1-.312-.663c.017-.424,0-.85,0-1.294A4.409,4.409,0,0,1,.814,177.4,4.244,4.244,0,0,1,0,174.669a4.415,4.415,0,0,1,3.875-4.137v-.358q0-3.358,0-6.716c0-.564.132-.7.7-.7h7.31c.574,0,.689.118.69.7,0,.833,0,1.666,0,2.5,0,.39-.152.582-.448.59s-.485-.2-.487-.589c0-.738,0-1.476,0-2.239H9.679c0,.45,0,.886,0,1.322s-.164.59-.586.6q-.859.012-1.718,0c-.424-.006-.57-.165-.572-.6s0-.869,0-1.323H4.832V170.5h6.793c.006-.1.018-.214.018-.324,0-.573,0-1.145,0-1.718s.137-.793.478-.79.459.219.459.8,0,1.145,0,1.718c0,.1.01.2.018.34h.418q7.247,0,14.5,0a4.333,4.333,0,0,1,4.266,2.989c.09.274.148.558.221.837v1c-.02.078-.047.155-.06.235a4.352,4.352,0,0,1-3.322,3.521c-.159.037-.319.07-.468.1a.365.365,0,0,0-.024.079c0,.4-.016.81,0,1.215a.681.681,0,0,1-.312.661H16.875c-.227-.145-.392-.331-.293-.618s.34-.338.61-.32c.073,0,.146,0,.219,0h9.753v-.978H4.835v.978h.384q4.794,0,9.589,0c.27,0,.512.038.61.322s-.067.472-.292.618Zm11.845-9.7q-2.39,0-4.78,0c-2.354,0-4.708-.03-7.061.018a3.381,3.381,0,0,0-3.072,4.478A3.427,3.427,0,0,0,4.5,178.294q11.5,0,23,0c.1,0,.208,0,.312-.006a3.413,3.413,0,0,0-.31-6.818q-5.733-.006-11.466,0m-8.279-6.782h.972v-.965H7.753Z" transform="translate(0 -149.171)" fill="#12263f"/><path d="M177.75,15.892c0,1.269,0,2.508,0,3.746,0,.584-.132.716-.717.717h-2.249a2.3,2.3,0,0,1-.25,0,.473.473,0,0,1-.461-.491.455.455,0,0,1,.479-.435c.614-.011,1.229-.005,1.843-.006h.393v-6.81h-1.96c0,.443,0,.877,0,1.31,0,.451-.147.6-.593.609q-.843.009-1.687,0c-.441,0-.594-.166-.6-.612,0-.426,0-.852,0-1.3H170v6.808c.633,0,1.245,0,1.857,0,.229,0,.459-.008.687.012a.413.413,0,0,1,.4.433.427.427,0,0,1-.366.471,1.107,1.107,0,0,1-.248.02q-1.328,0-2.655,0c-.492,0-.637-.144-.638-.632,0-1.156,0-2.312,0-3.468v-.372a3.556,3.556,0,0,1-.342.161.439.439,0,0,1-.586-.2c-.84-1.461-1.7-2.911-2.521-4.382a1.423,1.423,0,0,1,.623-2.049c1.409-.826,2.825-1.639,4.232-2.469a1.575,1.575,0,0,0,.35-.368c.312-.37.6-.764.937-1.107a.556.556,0,0,0,.218-.434c-.008-1.458,0-2.916,0-4.374,0-.507.147-.656.645-.657h1.531c.577,0,.7.122.7.687,0,1.437,0,2.874,0,4.311a.582.582,0,0,0,.221.465c.343.338.63.733.941,1.1a1.49,1.49,0,0,0,.322.352c1.4.824,2.8,1.636,4.207,2.45a1.477,1.477,0,0,1,.6,2.241q-1.138,1.973-2.279,3.946c-.358.62-.41.638-1.084.336M173.385,5.869a1.935,1.935,0,0,0-1.913,1.91,1.923,1.923,0,1,0,1.913-1.91m4.6,5.378c-.824-.476-1.613-.936-2.41-1.382a.3.3,0,0,0-.26.053,2.907,2.907,0,0,1-3.808.008.256.256,0,0,0-.351-.03c-.545.325-1.1.638-1.646.956l-.695.4.285.491a4.743,4.743,0,0,1,.644-.094q3.53-.009,7.06,0c.291,0,.583.047.9.075l.277-.478M176,9.017l2.629,1.522c.529.306.573.469.271.993s-.608,1.042-.9,1.569a1.439,1.439,0,0,0,.116,1.765c.023-.019.054-.034.068-.059.735-1.269,1.471-2.537,2.2-3.81a.5.5,0,0,0-.213-.744c-.481-.29-.968-.569-1.454-.85-.808-.468-1.616-.935-2.444-1.414-.039.192-.065.356-.107.515s-.1.316-.163.513m-7.349,5.871a1.408,1.408,0,0,0,.2-1.689c-.322-.583-.663-1.154-.994-1.732-.253-.441-.2-.627.243-.885.828-.48,1.658-.956,2.484-1.44.077-.045.19-.152.178-.207-.065-.308-.164-.609-.256-.93-1.309.76-2.606,1.507-3.9,2.266a.489.489,0,0,0-.183.749c.311.553.633,1.1.95,1.649l1.28,2.219m4.256-9.962h.968V.953h-.968Zm0,8.639h.967v-.958h-.967Z" transform="translate(-151.57 0)" fill="#12263f"/><path d="M37.252,279.068q5.764,0,11.529,0a2.41,2.41,0,1,1,.231,4.814c-.052,0-.1,0-.156,0q-11.591,0-23.182,0a2.409,2.409,0,0,1-.294-4.806c.176-.012.354-.011.531-.011H37.252m1.931.963H35.321a2.5,2.5,0,0,1,0,2.9h3.864a2.555,2.555,0,0,1,0-2.9m-11.6,2.9h3.856a2.492,2.492,0,0,1-.013-2.909H27.587c.585,1.436.585,1.436,0,2.909m15.611-2.911a6.226,6.226,0,0,1,.333,1.452,6.318,6.318,0,0,1-.336,1.449h3.775a2.5,2.5,0,0,1-.008-2.9Zm-16.118,1.465a1.47,1.47,0,0,0-2.94-.024,1.47,1.47,0,1,0,2.94.024m6.308-1.478a1.471,1.471,0,0,0-1.485,1.456,1.491,1.491,0,0,0,1.465,1.484,1.471,1.471,0,0,0,1.477-1.464,1.455,1.455,0,0,0-1.457-1.476m15.522,0a1.455,1.455,0,0,0-1.467,1.466,1.47,1.47,0,1,0,1.467-1.466m-7.772,0a1.454,1.454,0,0,0-1.461,1.472,1.472,1.472,0,0,0,1.473,1.468,1.49,1.49,0,0,0,1.469-1.48,1.471,1.471,0,0,0-1.481-1.46" transform="translate(-21.259 -255.767)" fill="#12263f"/><path d="M256.531,87.35a.458.458,0,0,1,.461.448.465.465,0,0,1-.468.477.473.473,0,0,1-.464-.483.467.467,0,0,1,.47-.442" transform="translate(-234.68 -80.057)" fill="#12263f"/><path d="M47.343,301.912a.467.467,0,0,1,.469.442.46.46,0,0,1-.919.05.466.466,0,0,1,.45-.492" transform="translate(-42.978 -276.703)" fill="#12263f"/><path d="M140.829,302.367a.466.466,0,0,1-.445.468.45.45,0,0,1-.484-.451.462.462,0,0,1,.436-.475.483.483,0,0,1,.493.458" transform="translate(-128.219 -276.7)" fill="#12263f"/><path d="M326.527,302.372a.466.466,0,0,1-.45.463.454.454,0,0,1-.482-.457.466.466,0,0,1,.444-.47.48.48,0,0,1,.487.463" transform="translate(-298.41 -276.7)" fill="#12263f"/><path d="M233.294,302.823a.462.462,0,0,1-.463-.448.466.466,0,1,1,.932.005.462.462,0,0,1-.468.442" transform="translate(-213.39 -276.687)" fill="#12263f"/></g></svg>