<svg xmlns="http://www.w3.org/2000/svg" width="174.736" height="167.985" viewBox="0 0 174.736 167.985"><g transform="translate(-599.737 -4770.43)"><path d="M808.971,4970.485H636.735V4805a2.5,2.5,0,0,1,5,0v160.485H808.971a2.5,2.5,0,0,1,0,5Z" transform="translate(-36.999 -32.07)" fill="#675d84"/><path d="M0,130.767a2.49,2.49,0,0,1-1.055-.235,2.5,2.5,0,0,1-1.21-3.322L57.527-1.056a2.5,2.5,0,0,1,3.322-1.21,2.5,2.5,0,0,1,1.21,3.322L2.266,129.323A2.5,2.5,0,0,1,0,130.767Z" transform="translate(621.525 4784.503)" fill="#675d84"/></g></svg>