<svg xmlns="http://www.w3.org/2000/svg" width="1242.072" height="523.795" viewBox="0 0 1242.072 523.795"><g transform="translate(-178.25 -1123.822)"><g transform="translate(-1 223)"><g transform="translate(-44.56 -3544.341)"><rect width="132" height="523" transform="translate(224.56 4445.341)" fill="#ffba5b" opacity="0.5"/><rect width="1109" height="84" transform="translate(356.56 4445.341)" fill="#ff7758" opacity="0.5"/><g transform="translate(224.31 4445.341)"><path d="M-.5-.5H1241.572V523.3H-.5ZM1240.572.5H.5V522.3H1240.572Z" transform="translate(0 0.322)" fill="#e8e8e8"/><path d="M1241.072.5H0v-1H1241.072Z" transform="translate(0 302.514)" fill="#e8e8e8"/><path d="M1241.072.5H0v-1H1241.072Z" transform="translate(0 220.539)" fill="#e8e8e8"/><path d="M1241.072.5H0v-1H1241.072Z" transform="translate(0 150.137)" fill="#e8e8e8"/><path d="M1241.072.5H0v-1H1241.072Z" transform="translate(0 84.557)" fill="#e8e8e8"/><path d="M.5,522.8h-1V0h1Z" transform="translate(1020.222 0.322)" fill="#e8e8e8"/><path d="M.5,522.8h-1V0h1Z" transform="translate(798.408 0.322)" fill="#e8e8e8"/><path d="M.5,522.8h-1V0h1Z" transform="translate(577.559 0.322)" fill="#e8e8e8"/><path d="M.5,522.8h-1V0h1Z" transform="translate(357.674 0.322)" fill="#e8e8e8"/><path d="M.5,522.8h-1V0h1Z" transform="translate(131.359)" fill="#e8e8e8"/></g><path d="M565.442,4970.485H393.206V4805a2.5,2.5,0,0,1,5,0v160.485H565.442a2.5,2.5,0,0,1,0,5Z" transform="translate(-15.283 -32.071)" fill="#675d84"/><path d="M0,165.485a2.5,2.5,0,0,1-2.5-2.5V0A2.5,2.5,0,0,1,0-2.5,2.5,2.5,0,0,1,2.5,0V162.985A2.5,2.5,0,0,1,0,165.485Z" transform="translate(448.896 4772.929)" fill="#675d84"/><path d="M808.971,4970.485H636.735V4805a2.5,2.5,0,0,1,5,0v160.485H808.971a2.5,2.5,0,0,1,0,5Z" transform="translate(-36.999 -32.071)" fill="#675d84"/><path d="M0,130.767a2.49,2.49,0,0,1-1.055-.235,2.5,2.5,0,0,1-1.21-3.322L57.527-1.056a2.5,2.5,0,0,1,3.322-1.21,2.5,2.5,0,0,1,1.21,3.322L2.266,129.323A2.5,2.5,0,0,1,0,130.767Z" transform="translate(621.525 4784.502)" fill="#675d84"/><path d="M1055.677,4970.485H883.441V4805a2.5,2.5,0,0,1,5,0v160.485h167.236a2.5,2.5,0,0,1,0,5Z" transform="translate(-58.997 -32.071)" fill="#675d84"/><path d="M0,116.3a2.49,2.49,0,0,1-1.615-.593,2.5,2.5,0,0,1-.291-3.524L94.534-1.616a2.5,2.5,0,0,1,3.524-.291,2.5,2.5,0,0,1,.291,3.524L1.907,115.417A2.5,2.5,0,0,1,0,116.3Z" transform="translate(846.232 4798.968)" fill="#675d84"/><path d="M1291.795,4970.485H1119.559V4805a2.5,2.5,0,0,1,5,0v160.485h167.236a2.5,2.5,0,0,1,0,5Z" transform="translate(-80.052 -32.071)" fill="#675d84"/><path d="M0,78.689a2.5,2.5,0,0,1-2.152-1.224,2.5,2.5,0,0,1,.873-3.426L126.99-2.149a2.5,2.5,0,0,1,3.426.873,2.5,2.5,0,0,1-.873,3.426L1.277,78.338A2.489,2.489,0,0,1,0,78.689Z" transform="translate(1068.046 4810.541)" fill="#675d84"/><path d="M1544.854,4970.485H1372.618V4805a2.5,2.5,0,0,1,5,0v160.485h167.236a2.5,2.5,0,0,1,0,5Z" transform="translate(-102.617 -32.071)" fill="#675d84"/><path d="M169.736,2.5H0A2.5,2.5,0,0,1-2.5,0,2.5,2.5,0,0,1,0-2.5H169.736a2.5,2.5,0,0,1,2.5,2.5A2.5,2.5,0,0,1,169.736,2.5Z" transform="translate(1272.501 4867.441)" fill="#675d84"/></g><text transform="translate(249 951)" fill="#12263f" font-size="18" font-family="Roboto-Bold, Roboto" font-weight="700"><tspan x="-18.11" y="0">Tipo</tspan></text><text transform="translate(430 938)" fill="#12263f" font-size="18" font-family="Roboto-Bold, Roboto" font-weight="700"><tspan x="-60.293" y="0">Perfectamente</tspan><tspan x="-39.313" y="22">Inelástica</tspan></text><text transform="translate(430 1024)" fill="#12263f" font-size="20" font-family="Roboto-Regular, Roboto"><tspan x="-49.722" y="0">Var. %Q = 0</tspan></text><text transform="translate(430 1170)" fill="#12263f" font-size="20" font-family="Roboto-Regular, Roboto"><tspan x="-38.179" y="0">No Varía</tspan></text><text transform="translate(642 1155)" fill="#12263f" font-size="20" font-family="Roboto-Regular, Roboto"><tspan x="-55.786" y="0">Varía menos</tspan><tspan x="-74.922" y="27">que proporcional</tspan></text><text transform="translate(862 1155)" fill="#12263f" font-size="20" font-family="Roboto-Regular, Roboto"><tspan x="-84.18" y="0">Varía directamente</tspan><tspan x="-55.952" y="27">proporcional</tspan></text><text transform="translate(1091 1155)" fill="#12263f" font-size="20" font-family="Roboto-Regular, Roboto"><tspan x="-44.707" y="0">Varía más</tspan><tspan x="-74.922" y="27">que proporcional</tspan></text><text transform="translate(1308 1155)" fill="#12263f" font-size="20" font-family="Roboto-Regular, Roboto"><tspan x="-94.478" y="0">Varía permaneciendo</tspan><tspan x="-84.731" y="27">constante el precio</tspan></text><text transform="translate(430 1091)" fill="#12263f" font-size="20" font-family="Roboto-Regular, Roboto"><tspan x="-5.615" y="0">0</tspan></text><text transform="translate(642 1024)" fill="#12263f" font-size="20" font-family="Roboto-Regular, Roboto"><tspan x="-81.753" y="0">Var. % Q &lt; Var. % P</tspan></text><text transform="translate(861 1024)" fill="#12263f" font-size="20" font-family="Roboto-Regular, Roboto"><tspan x="-81.753" y="0">Var. % Q &lt; Var. % P</tspan></text><text transform="translate(1081 1024)" fill="#12263f" font-size="20" font-family="Roboto-Regular, Roboto"><tspan x="-81.753" y="0">Var. % Q &lt; Var. % P</tspan></text><text transform="translate(1299 1024)" fill="#12263f" font-size="20" font-family="Roboto-Regular, Roboto"><tspan x="-49.155" y="0">Var. % P= 0</tspan></text><text transform="translate(642 1091)" fill="#12263f" font-size="20" font-family="Roboto-Regular, Roboto"><tspan x="-51.338" y="0">&gt; 0 pero &lt; 1</tspan></text><text transform="translate(1084 1091)" fill="#12263f" font-size="20" font-family="Roboto-Regular, Roboto"><tspan x="-56.006" y="0">&gt; 1 pero &lt; ∞</tspan></text><text transform="translate(1301 1091)" fill="#12263f" font-size="20" font-family="Roboto-Regular, Roboto"><tspan x="-10.283" y="0">∞</tspan></text><text transform="translate(862 1091)" fill="#12263f" font-size="20" font-family="Roboto-Regular, Roboto"><tspan x="-5.615" y="0">1</tspan></text><text transform="translate(642 951)" fill="#12263f" font-size="18" font-family="Roboto-Bold, Roboto" font-weight="700"><tspan x="-39.313" y="0">Inelástica</tspan></text><text transform="translate(861 951)" fill="#12263f" font-size="18" font-family="Roboto-Bold, Roboto" font-weight="700"><tspan x="-31.711" y="0">Unitaria</tspan></text><text transform="translate(1080 951)" fill="#12263f" font-size="18" font-family="Roboto-Bold, Roboto" font-weight="700"><tspan x="-31.847" y="0">Elástica</tspan></text><text transform="translate(1299 938)" fill="#12263f" font-size="18" font-family="Roboto-Bold, Roboto" font-weight="700"><tspan x="-60.253" y="0">Perfactamente</tspan><tspan x="-31.847" y="22">Elástica</tspan></text><text transform="translate(249 1024)" fill="#12263f" font-size="18" font-family="Roboto-Bold, Roboto" font-weight="700"><tspan x="-47.703" y="0">Variaciones</tspan></text><text transform="translate(249 1095)" fill="#12263f" font-size="18" font-family="Roboto-Bold, Roboto" font-weight="700"><tspan x="-10.129" y="0">Ep</tspan></text><text transform="translate(249 1166)" fill="#12263f" font-size="18" font-family="Roboto-Bold, Roboto" font-weight="700"><tspan x="-36.277" y="0">Var. de Q</tspan></text><text transform="translate(249 1305)" fill="#12263f" font-size="18" font-family="Roboto-Bold, Roboto" font-weight="700"><tspan x="-35.771" y="0">Curva de</tspan><tspan x="-37.49" y="22">demanda</tspan></text></g></g></svg>