<svg xmlns="http://www.w3.org/2000/svg" width="174.736" height="167.985" viewBox="0 0 174.736 167.985"><g transform="translate(-824.444 -4770.43)"><path d="M1055.677,4970.485H883.441V4805a2.5,2.5,0,0,1,5,0v160.485h167.236a2.5,2.5,0,0,1,0,5Z" transform="translate(-58.997 -32.07)" fill="#675d84"/><path d="M0,116.3a2.49,2.49,0,0,1-1.615-.593,2.5,2.5,0,0,1-.291-3.524L94.534-1.616a2.5,2.5,0,0,1,3.524-.291,2.5,2.5,0,0,1,.291,3.524L1.907,115.417A2.5,2.5,0,0,1,0,116.3Z" transform="translate(846.232 4798.968)" fill="#675d84"/></g></svg>